<svg width="1920" height="480" viewBox="0 0 1920 480" fill="none" xmlns="http://www.w3.org/2000/svg">
<g clip-path="url(#clip0_113_310)">
<rect width="1920" height="480" fill="#0088FF"/>
<path d="M1729.42 366.72C1711.82 366.72 1695.34 363.2 1679.98 356.16C1664.94 349.12 1652.14 339.36 1641.58 326.88L1673.74 297.6C1681.42 306.88 1690.06 314.24 1699.66 319.68C1709.58 324.8 1720.14 327.36 1731.34 327.36C1739.34 327.36 1746.54 326.08 1752.94 323.52C1759.34 320.96 1764.3 317.12 1767.82 312C1771.66 306.88 1773.58 300.8 1773.58 293.76C1773.58 286.4 1771.5 280.64 1767.34 276.48C1763.18 272.32 1757.58 268.96 1750.54 266.4C1743.5 263.52 1735.98 260.96 1727.98 258.72C1718.06 256.16 1708.62 252.96 1699.66 249.12C1690.7 245.28 1682.7 240.64 1675.66 235.2C1668.62 229.76 1663.02 223.04 1658.86 215.04C1654.7 207.04 1652.62 197.44 1652.62 186.24C1652.62 171.2 1656.3 158.4 1663.66 147.84C1671.34 136.96 1681.42 128.64 1693.9 122.88C1706.7 116.8 1720.94 113.76 1736.62 113.76C1751.98 113.76 1765.9 116.48 1778.38 121.92C1790.86 127.36 1801.9 135.52 1811.5 146.4L1780.78 175.68C1774.7 168.32 1767.82 162.88 1760.14 159.36C1752.78 155.52 1744.78 153.6 1736.14 153.6C1724.62 153.6 1715.02 156.32 1707.34 161.76C1699.98 167.2 1696.3 174.88 1696.3 184.8C1696.3 191.52 1698.38 197.12 1702.54 201.6C1706.7 205.76 1712.14 209.12 1718.86 211.68C1725.58 213.92 1732.94 216.16 1740.94 218.4C1751.18 221.28 1760.78 224.64 1769.74 228.48C1778.7 232 1786.7 236.48 1793.74 241.92C1801.1 247.36 1806.86 254.08 1811.02 262.08C1815.18 270.08 1817.26 280 1817.26 291.84C1817.26 306.88 1813.42 320 1805.74 331.2C1798.06 342.4 1787.66 351.2 1774.54 357.6C1761.42 363.68 1746.38 366.72 1729.42 366.72Z" fill="white"/>
<path d="M1549.76 359.999C1540.8 359.999 1533.28 358.239 1527.2 354.719C1521.44 351.199 1517.12 346.559 1514.24 340.799C1511.36 335.039 1509.92 328.639 1509.92 321.599V150.719L1538.72 121.439H1613.6V163.199H1472.48V121.439H1509.92V60H1556.48V312.959C1556.48 316.479 1558.24 318.239 1561.76 318.239H1613.6V359.999H1549.76Z" fill="white"/>
<path d="M1345.82 366.718C1327.9 366.718 1311.58 363.678 1296.86 357.598C1282.14 351.198 1269.5 342.398 1258.94 331.198C1248.38 319.678 1240.22 306.238 1234.46 290.878C1228.7 275.518 1225.82 258.718 1225.82 240.478C1225.82 216.158 1230.78 194.558 1240.7 175.678C1250.94 156.478 1265.02 141.438 1282.94 130.558C1300.86 119.678 1321.82 114.238 1345.82 114.238C1363.74 114.238 1380.06 117.438 1394.78 123.838C1409.5 129.918 1422.14 138.558 1432.7 149.758C1443.26 160.958 1451.42 174.238 1457.18 189.598C1462.94 204.958 1465.82 221.758 1465.82 239.998C1465.82 264.318 1460.86 286.078 1450.94 305.278C1441.02 324.158 1426.94 339.198 1408.7 350.398C1390.78 361.278 1369.82 366.718 1345.82 366.718ZM1345.82 324.958C1361.18 324.958 1374.3 321.118 1385.18 313.438C1396.06 305.758 1404.38 295.518 1410.14 282.718C1416.22 269.918 1419.26 255.678 1419.26 239.998C1419.26 224.318 1416.22 210.238 1410.14 197.758C1404.38 184.958 1395.9 174.878 1384.7 167.518C1373.82 159.838 1360.86 155.998 1345.82 155.998C1330.78 155.998 1317.66 159.838 1306.46 167.518C1295.58 174.878 1287.1 184.958 1281.02 197.758C1275.26 210.238 1272.38 224.478 1272.38 240.478C1272.38 256.158 1275.26 270.398 1281.02 283.198C1287.1 295.678 1295.58 305.758 1306.46 313.438C1317.66 321.118 1330.78 324.958 1345.82 324.958Z" fill="white"/>
<path d="M1092.07 366.718C1074.15 366.718 1057.83 363.678 1043.11 357.598C1028.39 351.198 1015.75 342.398 1005.19 331.198C994.63 319.678 986.47 306.238 980.71 290.878C974.95 275.518 972.07 258.718 972.07 240.478C972.07 216.158 977.03 194.558 986.95 175.678C997.19 156.478 1011.27 141.438 1029.19 130.558C1047.11 119.678 1068.07 114.238 1092.07 114.238C1109.99 114.238 1126.31 117.438 1141.03 123.838C1155.75 129.918 1168.39 138.558 1178.95 149.758C1189.51 160.958 1197.67 174.238 1203.43 189.598C1209.19 204.958 1212.07 221.758 1212.07 239.998C1212.07 264.318 1207.11 286.078 1197.19 305.278C1187.27 324.158 1173.19 339.198 1154.95 350.398C1137.03 361.278 1116.07 366.718 1092.07 366.718ZM1092.07 324.958C1107.43 324.958 1120.55 321.118 1131.43 313.438C1142.31 305.758 1150.63 295.518 1156.39 282.718C1162.47 269.918 1165.51 255.678 1165.51 239.998C1165.51 224.318 1162.47 210.238 1156.39 197.758C1150.63 184.958 1142.15 174.878 1130.95 167.518C1120.07 159.838 1107.11 155.998 1092.07 155.998C1077.03 155.998 1063.91 159.838 1052.71 167.518C1041.83 174.878 1033.35 184.958 1027.27 197.758C1021.51 210.238 1018.63 224.478 1018.63 240.478C1018.63 256.158 1021.51 270.398 1027.27 283.198C1033.35 295.678 1041.83 305.758 1052.71 313.438C1063.91 321.118 1077.03 324.958 1092.07 324.958Z" fill="white"/>
<path d="M600 359.999V121.439H646.08C646.08 126.239 646.08 130.719 646.08 134.879C646.08 139.039 646.08 143.199 646.08 147.359C646.08 151.519 645.92 156.159 645.6 161.279L648.48 161.759C656.48 147.039 666.4 135.679 678.24 127.679C690.08 119.679 704 115.679 720 115.679C736.96 115.679 751.2 119.839 762.72 128.159C774.56 136.159 782.88 147.359 787.68 161.759H791.04C799.04 146.719 809.44 135.359 822.24 127.679C835.04 119.679 849.44 115.679 865.44 115.679C884.96 115.679 900.64 119.839 912.48 128.159C924.64 136.479 933.44 147.999 938.88 162.719C944.32 177.439 947.04 194.079 947.04 212.639V359.999H900.48V220.799C900.48 201.919 896.32 186.719 888 175.199C879.68 163.359 867.04 157.439 850.08 157.439C838.56 157.439 828.8 160.319 820.8 166.079C812.8 171.839 806.72 179.519 802.56 189.119C798.72 198.399 796.8 209.119 796.8 221.279V359.999H750.24V220.799C750.24 201.919 746.08 186.719 737.76 175.199C729.76 163.359 717.6 157.439 701.28 157.439C690.08 157.439 680.32 160.479 672 166.559C664 172.319 657.76 179.999 653.28 189.599C649.12 199.199 647.04 209.919 647.04 221.759V359.999H600Z" fill="white"/>
<path d="M250.642 189.36C250.642 178.314 241.688 169.36 230.642 169.36H217.439C206.833 169.36 196.659 165.139 189.158 157.641L179.802 148.286C171.992 140.476 159.331 140.476 151.521 148.286L142.165 157.641C134.665 165.14 124.49 169.359 113.884 169.36H100.681C89.6353 169.36 80.681 178.314 80.681 189.36V202.563C80.6803 213.169 76.4611 223.344 68.9622 230.844L59.6068 240.2C51.797 248.01 51.7965 260.671 59.6068 268.481L62.3411 271.215C74.5884 283.463 77.5596 302.204 69.7044 317.641L40.5638 374.887L40.4661 375.102C40.1666 375.659 40.0539 376.03 40.0169 376.274V376.684L40.5638 378.129C40.7539 378.484 40.9427 378.723 41.1107 378.891C41.4451 379.225 42.0411 379.658 43.3177 379.965C43.3999 379.985 43.7815 380.138 44.8997 379.536L45.095 379.418L102.361 350.297C117.798 342.442 136.539 345.413 148.786 357.661L151.521 360.395C159.331 368.202 171.993 368.204 179.802 360.395L189.158 351.04C196.659 343.54 206.832 339.321 217.439 339.321H230.642C241.458 339.321 250.23 330.754 250.603 320.043L250.622 319.497L250.642 319.321L250.661 318.813L250.642 306.118C250.642 295.51 254.861 285.338 262.361 277.836L271.716 268.481C279.524 260.671 279.523 248.01 271.716 240.2L262.361 230.844C254.86 223.343 250.643 213.17 250.642 202.563V189.36ZM394.802 153.11V133.715C394.799 122.672 385.838 113.721 374.802 113.715H355.427C344.826 113.715 334.614 109.503 327.107 101.997L313.396 88.2856C305.587 80.4807 292.944 80.4805 285.134 88.2856L271.384 101.997C263.885 109.495 253.714 113.715 243.103 113.715H223.708C217.689 113.719 212.293 116.372 208.611 120.61L201.072 114.047L193.513 107.504C200.826 99.0862 211.648 93.7205 223.708 93.7153H243.103C248.404 93.7153 253.491 91.6077 257.243 87.856L270.993 74.1255C286.615 58.5195 311.939 58.5283 327.556 74.145L341.267 87.856C345.012 91.5973 350.118 93.7153 355.427 93.7153H374.802C396.889 93.7206 414.796 111.636 414.802 133.715V153.11C414.803 158.404 416.91 163.496 420.661 167.25L434.392 180.981C449.997 196.598 450.008 221.923 434.392 237.543L434.372 237.563L427.263 244.653C421.157 250.768 419.68 260.15 423.611 267.875L457.068 333.637C459.742 338.7 460.761 344.336 459.372 350.122C458.259 354.757 456.102 359.073 452.595 362.583C449.085 366.091 444.758 368.265 440.115 369.379C434.332 370.766 428.695 369.732 423.63 367.055L357.868 333.579C351.126 330.15 343.111 330.865 337.107 335.2L334.665 337.27L327.556 344.399C315.021 356.924 296.279 359.328 281.326 351.821L290.31 333.95C297.829 337.723 307.169 336.475 313.396 330.258L320.525 323.129L322.888 320.942C335.085 310.564 352.455 308.388 366.931 315.747L432.712 349.243L432.908 349.34C434.321 350.101 435.023 350.028 435.447 349.926C437.08 349.534 437.924 348.951 438.435 348.442C438.942 347.935 439.525 347.091 439.919 345.454C440.02 345.033 440.115 344.332 439.353 342.915L439.236 342.719L405.779 276.938C397.931 261.513 400.867 242.749 413.122 230.493L420.251 223.403L421.618 221.899C428.026 214.047 427.573 202.449 420.251 195.122L406.501 181.391C399.012 173.896 394.803 163.719 394.802 153.11ZM270.642 202.563C270.643 207.866 272.752 212.954 276.501 216.704L285.857 226.059C301.474 241.68 301.475 267.002 285.857 282.622L276.501 291.977C272.752 295.728 270.642 300.814 270.642 306.118L270.661 319.34C270.661 319.521 270.627 319.691 270.622 319.848L270.583 320.981C269.72 342.316 252.175 359.321 230.642 359.321H217.439C212.136 359.321 207.049 361.431 203.298 365.18L193.943 374.536C178.323 390.155 153.001 390.153 137.38 374.536L134.646 371.801C128.522 365.677 119.142 364.182 111.423 368.11L54.1771 397.25L54.1575 397.231C49.4475 399.713 44.1396 400.736 38.6497 399.418C34.2821 398.369 30.2524 396.313 26.97 393.032C23.6886 389.75 21.633 385.719 20.5833 381.352L20.1927 379.262C19.5325 374.432 20.6052 369.777 22.8489 365.61L51.8724 308.579C55.7999 300.86 54.3238 291.48 48.2005 285.356L45.4661 282.622C29.8454 267.001 29.8459 241.68 45.4661 226.059L54.8216 216.704C58.5698 212.954 60.6803 207.865 60.681 202.563V189.36C60.681 167.268 78.5896 149.36 100.681 149.36H113.884C119.186 149.359 124.275 147.249 128.025 143.5L137.38 134.145C153.001 118.525 178.322 118.524 193.943 134.145L203.298 143.5C207.048 147.248 212.137 149.36 217.439 149.36H230.642C252.733 149.36 270.642 167.268 270.642 189.36V202.563Z" fill="white"/>
<path d="M109.997 250.001C109.997 238.955 118.952 230.001 129.997 230.001C141.043 230.001 149.997 238.955 149.997 250.001C149.997 261.046 141.043 270 129.997 270C118.952 270 109.997 261.046 109.997 250.001Z" fill="white"/>
<path d="M189.997 250.001C189.997 238.955 198.952 230.001 209.997 230.001C221.043 230.001 229.997 238.955 229.997 250.001C229.997 261.046 221.043 270 209.997 270C198.952 270 189.997 261.046 189.997 250.001Z" fill="white"/>
</g>
<defs>
<clipPath id="clip0_113_310">
<rect width="1920" height="480" fill="white"/>
</clipPath>
</defs>
</svg>
