<svg width="512" height="512" viewBox="0 0 512 512" fill="none" xmlns="http://www.w3.org/2000/svg">
<g clip-path="url(#clip0_114_226)">
<path d="M267.352 201.984C267.352 190.202 257.8 180.65 246.018 180.65H231.935C220.622 180.65 209.769 176.149 201.768 168.15L191.789 158.171C183.458 149.84 169.954 149.841 161.622 158.171L151.643 168.15C143.643 176.149 132.79 180.649 121.477 180.65H107.393C95.6111 180.65 86.0599 190.202 86.0599 201.984V216.067C86.0591 227.38 81.5587 238.233 73.5599 246.234L63.5807 256.213C55.2503 264.544 55.2498 278.049 63.5807 286.38L66.4974 289.296C79.5611 302.361 82.7304 322.351 74.3515 338.817L43.2682 399.88L43.164 400.109C42.8445 400.702 42.7243 401.099 42.6849 401.359V401.796L43.2682 403.338C43.471 403.716 43.6724 403.971 43.8515 404.15C44.2083 404.506 44.844 404.968 46.2057 405.296C46.2934 405.317 46.7005 405.48 47.8932 404.838L48.1015 404.713L109.185 373.65C125.651 365.272 145.641 368.44 158.706 381.505L161.622 384.421C169.954 392.749 183.459 392.75 191.789 384.421L201.768 374.442C209.769 366.443 220.62 361.942 231.935 361.942H246.018C257.556 361.942 266.912 352.804 267.31 341.38L267.331 340.796L267.352 340.609L267.372 340.067L267.352 326.525C267.352 315.211 271.852 304.36 279.852 296.359L289.831 286.38C298.159 278.049 298.158 264.544 289.831 256.213L279.852 246.234C271.851 238.233 267.352 227.382 267.352 216.067V201.984ZM421.122 163.317V142.63C421.119 130.85 411.56 121.302 399.789 121.296H379.122C367.815 121.296 356.921 116.803 348.914 108.796L334.289 94.1712C325.96 85.8459 312.474 85.8457 304.143 94.1712L289.477 108.796C281.477 116.794 270.628 121.296 259.31 121.296H238.622C232.202 121.3 226.446 124.13 222.518 128.65L214.477 121.65L206.414 114.671C214.214 105.692 225.758 99.9684 238.622 99.9629H259.31C264.964 99.9629 270.39 97.7147 274.393 93.7129L289.06 79.067C305.723 62.4207 332.735 62.43 349.393 79.0879L364.018 93.7129C368.013 97.7037 373.459 99.9628 379.122 99.9629H399.789C423.348 99.9685 442.449 119.078 442.456 142.63V163.317C442.457 168.964 444.704 174.396 448.706 178.4L463.352 193.046C479.997 209.705 480.008 236.717 463.352 253.38L463.331 253.4L455.747 260.963C449.235 267.486 447.659 277.494 451.852 285.734L487.539 355.88C490.392 361.28 491.479 367.291 489.997 373.463C488.81 378.407 486.509 383.011 482.768 386.755C479.025 390.496 474.409 392.816 469.456 394.005C463.288 395.484 457.275 394.38 451.872 391.525L381.727 355.817C374.534 352.16 365.985 352.923 359.581 357.546L356.977 359.755L349.393 367.359C336.022 380.718 316.031 383.283 300.081 375.275L309.664 356.213C317.685 360.238 327.647 358.907 334.289 352.275L341.893 344.671L344.414 342.338C357.424 331.268 375.952 328.947 391.393 336.796L461.56 372.525L461.768 372.63C463.276 373.441 464.025 373.363 464.477 373.255C466.219 372.836 467.119 372.215 467.664 371.671C468.205 371.13 468.827 370.23 469.247 368.484C469.355 368.035 469.456 367.287 468.643 365.775L468.518 365.567L432.831 295.4C424.46 278.947 427.592 258.932 440.664 245.859L448.268 238.296L449.727 236.692C456.561 228.317 456.078 215.945 448.268 208.13L433.602 193.484C425.613 185.489 421.123 174.633 421.122 163.317ZM288.685 216.067C288.686 221.724 290.935 227.15 294.935 231.15L304.914 241.13C321.573 257.792 321.574 284.802 304.914 301.463L294.935 311.442C290.936 315.443 288.685 320.869 288.685 326.525L288.706 340.63C288.706 340.822 288.669 341.004 288.664 341.171L288.622 342.38C287.702 365.137 268.987 383.275 246.018 383.275H231.935C226.278 383.275 220.852 385.527 216.852 389.525L206.872 399.505C190.211 416.165 163.201 416.163 146.539 399.505L143.622 396.588C137.09 390.056 127.085 388.461 118.852 392.65L57.789 423.734L57.7682 423.713C52.7441 426.361 47.0824 427.452 41.2265 426.046C36.5677 424.927 32.2694 422.734 28.7682 419.234C25.268 415.733 23.0754 411.433 21.9557 406.775L21.539 404.546C20.8349 399.394 21.9791 394.428 24.3724 389.984L55.3307 329.15C59.5201 320.917 57.9456 310.912 51.414 304.38L48.4974 301.463C31.8352 284.801 31.8358 257.792 48.4974 241.13L58.4765 231.15C62.4746 227.151 64.7258 221.722 64.7265 216.067V201.984C64.7265 178.42 83.8291 159.317 107.393 159.317H121.477C127.132 159.316 132.56 157.065 136.56 153.067L146.539 143.088C163.202 126.427 190.21 126.426 206.872 143.088L216.852 153.067C220.852 157.064 226.279 159.317 231.935 159.317H246.018C269.582 159.317 288.685 178.42 288.685 201.984V216.067Z" fill="white"/>
<path d="M117.331 266.667C117.331 254.885 126.882 245.334 138.664 245.334C150.446 245.334 159.997 254.885 159.997 266.667C159.997 278.449 150.446 288 138.664 288C126.882 288 117.331 278.449 117.331 266.667Z" fill="white"/>
<path d="M202.664 266.667C202.664 254.885 212.215 245.334 223.997 245.334C235.779 245.334 245.331 254.885 245.331 266.667C245.331 278.449 235.779 288 223.997 288C212.215 288 202.664 278.449 202.664 266.667Z" fill="white"/>
</g>
<defs>
<clipPath id="clip0_114_226">
<rect width="512" height="512" fill="white"/>
</clipPath>
</defs>
</svg>
