<svg width="512" height="512" viewBox="0 0 512 512" fill="none" xmlns="http://www.w3.org/2000/svg">
<g clip-path="url(#clip0_114_234)">
<path fill-rule="evenodd" clip-rule="evenodd" d="M154.098 150.638C166.595 138.141 186.852 138.141 199.348 150.638L209.327 160.596C215.329 166.597 223.466 169.971 231.952 169.971H246.036C263.707 169.971 278.033 184.3 278.036 201.971V216.075C278.039 224.558 281.412 232.701 287.411 238.7L297.39 248.658C309.887 261.155 309.887 281.432 297.39 293.929L287.411 303.888C281.41 309.889 278.036 318.046 278.036 326.533V340.638C278.03 358.306 263.705 372.617 246.036 372.617H231.952C223.466 372.617 215.329 375.991 209.327 381.992L199.348 391.971C186.854 404.461 166.595 404.459 154.098 391.971L151.182 389.054C141.383 379.256 126.386 376.874 114.036 383.158L52.9733 414.221C49.8397 415.908 46.7573 416.4 43.7442 415.679C40.7323 414.956 38.2564 413.626 36.3275 411.7C34.3995 409.772 33.0725 407.295 32.3483 404.283C31.6249 401.269 32.099 398.189 33.7858 395.054L64.8692 333.971C71.1462 321.625 68.7647 306.642 58.9733 296.846L56.0567 293.929C43.5599 281.432 43.5599 261.155 56.0567 248.658L66.0358 238.7C72.0344 232.701 75.3873 224.558 75.39 216.075V201.971C75.3925 184.303 89.723 169.976 107.39 169.971H121.494C129.979 169.97 138.119 166.596 144.119 160.596L154.098 150.638ZM138.682 245.325C126.902 245.325 117.353 254.88 117.348 266.658C117.348 278.44 126.9 287.992 138.682 287.992C150.463 287.991 160.015 278.44 160.015 266.658C160.01 254.881 150.46 245.326 138.682 245.325ZM224.015 245.325C212.236 245.325 202.686 254.88 202.682 266.658C202.682 278.44 212.233 287.992 224.015 287.992C235.796 287.991 245.348 278.44 245.348 266.658C245.344 254.881 235.794 245.326 224.015 245.325Z" fill="#0088FF"/>
<path d="M296.598 86.6375C309.095 74.1421 329.352 74.1412 341.848 86.6375L356.473 101.263C362.474 107.263 370.653 110.638 379.14 110.638H399.786C417.456 110.638 431.781 124.969 431.786 142.638V163.325C431.789 171.804 435.167 179.952 441.161 185.95L455.827 200.596C468.314 213.093 468.319 233.352 455.827 245.846L448.223 253.408C438.429 263.207 436.065 278.227 442.348 290.575L478.036 360.721C479.911 364.204 480.444 367.621 479.64 370.971C478.836 374.32 477.367 377.077 475.223 379.221C473.08 381.361 470.32 382.834 466.973 383.638C463.627 384.437 460.203 383.907 456.723 382.033L386.577 346.325C374.232 340.047 359.249 342.43 349.453 352.221L341.848 359.825C331.843 369.817 316.874 371.776 304.89 365.763C308.19 358.048 310.032 349.556 310.036 340.638V326.533L320.015 316.575C345.008 291.583 345.005 251.027 320.015 226.033L310.036 216.075V201.971C310.032 166.63 281.377 137.974 246.036 137.971H231.952L221.973 128.013C219.617 125.656 217.08 123.57 214.473 121.658C220.338 114.908 228.997 110.642 238.64 110.638H259.327C267.812 110.637 275.952 107.26 281.952 101.263L296.598 86.6375Z" fill="#0088FF"/>
</g>
<defs>
<clipPath id="clip0_114_234">
<rect width="512" height="512" fill="white"/>
</clipPath>
</defs>
</svg>
