<svg width="1920" height="480" viewBox="0 0 1920 480" fill="none" xmlns="http://www.w3.org/2000/svg">
<g clip-path="url(#clip0_113_273)">
<path d="M1729.42 366.72C1711.82 366.72 1695.34 363.2 1679.98 356.16C1664.94 349.12 1652.14 339.36 1641.58 326.88L1673.74 297.6C1681.42 306.88 1690.06 314.24 1699.66 319.68C1709.58 324.8 1720.14 327.36 1731.34 327.36C1739.34 327.36 1746.54 326.08 1752.94 323.52C1759.34 320.96 1764.3 317.12 1767.82 312C1771.66 306.88 1773.58 300.8 1773.58 293.76C1773.58 286.4 1771.5 280.64 1767.34 276.48C1763.18 272.32 1757.58 268.96 1750.54 266.4C1743.5 263.52 1735.98 260.96 1727.98 258.72C1718.06 256.16 1708.62 252.96 1699.66 249.12C1690.7 245.28 1682.7 240.64 1675.66 235.2C1668.62 229.76 1663.02 223.04 1658.86 215.04C1654.7 207.04 1652.62 197.44 1652.62 186.24C1652.62 171.2 1656.3 158.4 1663.66 147.84C1671.34 136.96 1681.42 128.64 1693.9 122.88C1706.7 116.8 1720.94 113.76 1736.62 113.76C1751.98 113.76 1765.9 116.48 1778.38 121.92C1790.86 127.36 1801.9 135.52 1811.5 146.4L1780.78 175.68C1774.7 168.32 1767.82 162.88 1760.14 159.36C1752.78 155.52 1744.78 153.6 1736.14 153.6C1724.62 153.6 1715.02 156.32 1707.34 161.76C1699.98 167.2 1696.3 174.88 1696.3 184.8C1696.3 191.52 1698.38 197.12 1702.54 201.6C1706.7 205.76 1712.14 209.12 1718.86 211.68C1725.58 213.92 1732.94 216.16 1740.94 218.4C1751.18 221.28 1760.78 224.64 1769.74 228.48C1778.7 232 1786.7 236.48 1793.74 241.92C1801.1 247.36 1806.86 254.08 1811.02 262.08C1815.18 270.08 1817.26 280 1817.26 291.84C1817.26 306.88 1813.42 320 1805.74 331.2C1798.06 342.4 1787.66 351.2 1774.54 357.6C1761.42 363.68 1746.38 366.72 1729.42 366.72Z" fill="#0088FF"/>
<path d="M1549.76 359.999C1540.8 359.999 1533.28 358.239 1527.2 354.719C1521.44 351.199 1517.12 346.559 1514.24 340.799C1511.36 335.039 1509.92 328.639 1509.92 321.599V150.719L1538.72 121.439H1613.6V163.199H1472.48V121.439H1509.92V60H1556.48V312.959C1556.48 316.479 1558.24 318.239 1561.76 318.239H1613.6V359.999H1549.76Z" fill="#0088FF"/>
<path d="M1345.82 366.718C1327.9 366.718 1311.58 363.678 1296.86 357.598C1282.14 351.198 1269.5 342.398 1258.94 331.198C1248.38 319.678 1240.22 306.238 1234.46 290.878C1228.7 275.518 1225.82 258.718 1225.82 240.478C1225.82 216.158 1230.78 194.558 1240.7 175.678C1250.94 156.478 1265.02 141.438 1282.94 130.558C1300.86 119.678 1321.82 114.238 1345.82 114.238C1363.74 114.238 1380.06 117.438 1394.78 123.838C1409.5 129.918 1422.14 138.558 1432.7 149.758C1443.26 160.958 1451.42 174.238 1457.18 189.598C1462.94 204.958 1465.82 221.758 1465.82 239.998C1465.82 264.318 1460.86 286.078 1450.94 305.278C1441.02 324.158 1426.94 339.198 1408.7 350.398C1390.78 361.278 1369.82 366.718 1345.82 366.718ZM1345.82 324.958C1361.18 324.958 1374.3 321.118 1385.18 313.438C1396.06 305.758 1404.38 295.518 1410.14 282.718C1416.22 269.918 1419.26 255.678 1419.26 239.998C1419.26 224.318 1416.22 210.238 1410.14 197.758C1404.38 184.958 1395.9 174.878 1384.7 167.518C1373.82 159.838 1360.86 155.998 1345.82 155.998C1330.78 155.998 1317.66 159.838 1306.46 167.518C1295.58 174.878 1287.1 184.958 1281.02 197.758C1275.26 210.238 1272.38 224.478 1272.38 240.478C1272.38 256.158 1275.26 270.398 1281.02 283.198C1287.1 295.678 1295.58 305.758 1306.46 313.438C1317.66 321.118 1330.78 324.958 1345.82 324.958Z" fill="#0088FF"/>
<path d="M1092.07 366.718C1074.15 366.718 1057.83 363.678 1043.11 357.598C1028.39 351.198 1015.75 342.398 1005.19 331.198C994.63 319.678 986.47 306.238 980.71 290.878C974.95 275.518 972.07 258.718 972.07 240.478C972.07 216.158 977.03 194.558 986.95 175.678C997.19 156.478 1011.27 141.438 1029.19 130.558C1047.11 119.678 1068.07 114.238 1092.07 114.238C1109.99 114.238 1126.31 117.438 1141.03 123.838C1155.75 129.918 1168.39 138.558 1178.95 149.758C1189.51 160.958 1197.67 174.238 1203.43 189.598C1209.19 204.958 1212.07 221.758 1212.07 239.998C1212.07 264.318 1207.11 286.078 1197.19 305.278C1187.27 324.158 1173.19 339.198 1154.95 350.398C1137.03 361.278 1116.07 366.718 1092.07 366.718ZM1092.07 324.958C1107.43 324.958 1120.55 321.118 1131.43 313.438C1142.31 305.758 1150.63 295.518 1156.39 282.718C1162.47 269.918 1165.51 255.678 1165.51 239.998C1165.51 224.318 1162.47 210.238 1156.39 197.758C1150.63 184.958 1142.15 174.878 1130.95 167.518C1120.07 159.838 1107.11 155.998 1092.07 155.998C1077.03 155.998 1063.91 159.838 1052.71 167.518C1041.83 174.878 1033.35 184.958 1027.27 197.758C1021.51 210.238 1018.63 224.478 1018.63 240.478C1018.63 256.158 1021.51 270.398 1027.27 283.198C1033.35 295.678 1041.83 305.758 1052.71 313.438C1063.91 321.118 1077.03 324.958 1092.07 324.958Z" fill="#0088FF"/>
<path d="M600 359.999V121.439H646.08C646.08 126.239 646.08 130.719 646.08 134.879C646.08 139.039 646.08 143.199 646.08 147.359C646.08 151.519 645.92 156.159 645.6 161.279L648.48 161.759C656.48 147.039 666.4 135.679 678.24 127.679C690.08 119.679 704 115.679 720 115.679C736.96 115.679 751.2 119.839 762.72 128.159C774.56 136.159 782.88 147.359 787.68 161.759H791.04C799.04 146.719 809.44 135.359 822.24 127.679C835.04 119.679 849.44 115.679 865.44 115.679C884.96 115.679 900.64 119.839 912.48 128.159C924.64 136.479 933.44 147.999 938.88 162.719C944.32 177.439 947.04 194.079 947.04 212.639V359.999H900.48V220.799C900.48 201.919 896.32 186.719 888 175.199C879.68 163.359 867.04 157.439 850.08 157.439C838.56 157.439 828.8 160.319 820.8 166.079C812.8 171.839 806.72 179.519 802.56 189.119C798.72 198.399 796.8 209.119 796.8 221.279V359.999H750.24V220.799C750.24 201.919 746.08 186.719 737.76 175.199C729.76 163.359 717.6 157.439 701.28 157.439C690.08 157.439 680.32 160.479 672 166.559C664 172.319 657.76 179.999 653.28 189.599C649.12 199.199 647.04 209.919 647.04 221.759V359.999H600Z" fill="#0088FF"/>
<path fill-rule="evenodd" clip-rule="evenodd" d="M144.444 141.218C156.159 129.502 175.169 129.502 186.885 141.218L196.221 150.573C201.847 156.199 209.495 159.362 217.451 159.362H230.655C247.222 159.363 260.655 172.794 260.655 189.362V202.565C260.656 210.521 263.818 218.151 269.444 223.776L278.799 233.132C290.507 244.847 290.509 263.84 278.799 275.554L269.444 284.909C263.818 290.535 260.655 298.164 260.655 306.12V319.343C260.652 335.909 247.221 349.322 230.655 349.323H217.451C209.495 349.323 201.847 352.486 196.221 358.112L186.885 367.468C175.169 379.183 156.159 379.183 144.444 367.468L141.709 364.733C132.524 355.551 118.481 353.318 106.905 359.206L49.6389 388.347C46.7019 389.926 43.8107 390.372 40.9866 389.694C38.1636 389.015 35.8408 387.771 34.0334 385.964C32.2264 384.155 30.9809 381.836 30.303 379.011C29.6248 376.184 30.0872 373.298 31.6702 370.358L60.7913 313.112C66.6819 301.536 64.4659 287.474 55.2834 278.288L52.5491 275.554C40.8333 263.838 40.8333 244.848 52.5491 233.132L61.885 223.776C67.5102 218.151 70.6731 210.521 70.6741 202.565V189.362C70.6741 172.795 84.1078 159.365 100.674 159.362H113.897C121.85 159.36 129.484 156.197 135.108 150.573L144.444 141.218ZM130.01 230.007C118.964 230.007 110.01 238.961 110.01 250.007C110.013 261.05 118.966 270.007 130.01 270.007C141.051 270.004 150.007 261.048 150.01 250.007C150.01 238.963 141.053 230.01 130.01 230.007ZM210.01 230.007C198.964 230.007 190.01 238.961 190.01 250.007C190.013 261.05 198.966 270.007 210.01 270.007C221.051 270.004 230.007 261.048 230.01 250.007C230.01 238.963 221.053 230.01 210.01 230.007Z" fill="#0088FF"/>
<path d="M278.057 81.2177C289.773 69.5033 308.763 69.5025 320.479 81.2177L334.19 94.9287C339.816 100.555 347.483 103.718 355.44 103.718H374.795C391.361 103.718 404.79 117.153 404.795 133.718V153.112C404.796 161.064 407.964 168.699 413.584 174.323L427.334 188.054C439.039 199.768 439.04 218.762 427.334 230.476L420.205 237.565C411.019 246.751 408.806 260.831 414.698 272.409L448.155 338.171C449.911 341.434 450.41 344.642 449.658 347.78C448.905 350.919 447.527 353.505 445.518 355.515C443.508 357.524 440.923 358.902 437.783 359.655C434.645 360.407 431.438 359.909 428.174 358.151L362.412 324.675C350.84 318.79 336.792 321.028 327.608 330.202L320.479 337.331C311.099 346.702 297.067 348.535 285.83 342.897C288.924 335.664 290.652 327.706 290.655 319.343V306.12L300.01 296.784C323.44 273.353 323.439 235.333 300.01 211.901L290.655 202.565V189.343C290.648 156.213 263.785 129.346 230.655 129.343H217.451L208.096 120.007C205.887 117.798 203.508 115.842 201.065 114.05C206.562 107.722 214.681 103.722 223.721 103.718H243.115C251.07 103.716 258.702 100.553 264.326 94.9287L278.057 81.2177Z" fill="#0088FF"/>
</g>
<defs>
<clipPath id="clip0_113_273">
<rect width="1920" height="480" fill="white"/>
</clipPath>
</defs>
</svg>
