<svg width="1464" height="480" viewBox="0 0 1464 480" fill="none" xmlns="http://www.w3.org/2000/svg">
<path d="M1249.42 366.72C1231.82 366.72 1215.34 363.2 1199.98 356.16C1184.94 349.12 1172.14 339.36 1161.58 326.88L1193.74 297.6C1201.42 306.88 1210.06 314.24 1219.66 319.68C1229.58 324.8 1240.14 327.36 1251.34 327.36C1259.34 327.36 1266.54 326.08 1272.94 323.52C1279.34 320.96 1284.3 317.12 1287.82 312C1291.66 306.88 1293.58 300.8 1293.58 293.76C1293.58 286.4 1291.5 280.64 1287.34 276.48C1283.18 272.32 1277.58 268.96 1270.54 266.4C1263.5 263.52 1255.98 260.96 1247.98 258.72C1238.06 256.16 1228.62 252.96 1219.66 249.12C1210.7 245.28 1202.7 240.64 1195.66 235.2C1188.62 229.76 1183.02 223.04 1178.86 215.04C1174.7 207.04 1172.62 197.44 1172.62 186.24C1172.62 171.2 1176.3 158.4 1183.66 147.84C1191.34 136.96 1201.42 128.64 1213.9 122.88C1226.7 116.8 1240.94 113.76 1256.62 113.76C1271.98 113.76 1285.9 116.48 1298.38 121.92C1310.86 127.36 1321.9 135.52 1331.5 146.4L1300.78 175.68C1294.7 168.32 1287.82 162.88 1280.14 159.36C1272.78 155.52 1264.78 153.6 1256.14 153.6C1244.62 153.6 1235.02 156.32 1227.34 161.76C1219.98 167.2 1216.3 174.88 1216.3 184.8C1216.3 191.52 1218.38 197.12 1222.54 201.6C1226.7 205.76 1232.14 209.12 1238.86 211.68C1245.58 213.92 1252.94 216.16 1260.94 218.4C1271.18 221.28 1280.78 224.64 1289.74 228.48C1298.7 232 1306.7 236.48 1313.74 241.92C1321.1 247.36 1326.86 254.08 1331.02 262.08C1335.18 270.08 1337.26 280 1337.26 291.84C1337.26 306.88 1333.42 320 1325.74 331.2C1318.06 342.4 1307.66 351.2 1294.54 357.6C1281.42 363.68 1266.38 366.72 1249.42 366.72Z" fill="#0088FF"/>
<path d="M1069.76 359.999C1060.8 359.999 1053.28 358.239 1047.2 354.719C1041.44 351.199 1037.12 346.559 1034.24 340.799C1031.36 335.039 1029.92 328.639 1029.92 321.599V150.719L1058.72 121.439H1133.6V163.199H992.48V121.439H1029.92V60H1076.48V312.959C1076.48 316.479 1078.24 318.239 1081.76 318.239H1133.6V359.999H1069.76Z" fill="#0088FF"/>
<path d="M865.82 366.718C847.9 366.718 831.58 363.678 816.86 357.598C802.14 351.198 789.5 342.398 778.94 331.198C768.38 319.678 760.22 306.238 754.46 290.878C748.7 275.518 745.82 258.718 745.82 240.478C745.82 216.158 750.78 194.558 760.7 175.678C770.94 156.478 785.02 141.438 802.94 130.558C820.86 119.678 841.82 114.238 865.82 114.238C883.74 114.238 900.06 117.438 914.78 123.838C929.5 129.918 942.14 138.558 952.7 149.758C963.26 160.958 971.42 174.238 977.18 189.598C982.94 204.958 985.82 221.758 985.82 239.998C985.82 264.318 980.86 286.078 970.94 305.278C961.02 324.158 946.94 339.198 928.7 350.398C910.78 361.278 889.82 366.718 865.82 366.718ZM865.82 324.958C881.18 324.958 894.3 321.118 905.18 313.438C916.06 305.758 924.38 295.518 930.14 282.718C936.22 269.918 939.26 255.678 939.26 239.998C939.26 224.318 936.22 210.238 930.14 197.758C924.38 184.958 915.9 174.878 904.7 167.518C893.82 159.838 880.86 155.998 865.82 155.998C850.78 155.998 837.66 159.838 826.46 167.518C815.58 174.878 807.1 184.958 801.02 197.758C795.26 210.238 792.38 224.478 792.38 240.478C792.38 256.158 795.26 270.398 801.02 283.198C807.1 295.678 815.58 305.758 826.46 313.438C837.66 321.118 850.78 324.958 865.82 324.958Z" fill="#0088FF"/>
<path d="M612.07 366.718C594.15 366.718 577.83 363.678 563.11 357.598C548.39 351.198 535.75 342.398 525.19 331.198C514.63 319.678 506.47 306.238 500.71 290.878C494.95 275.518 492.07 258.718 492.07 240.478C492.07 216.158 497.03 194.558 506.95 175.678C517.19 156.478 531.27 141.438 549.19 130.558C567.11 119.678 588.07 114.238 612.07 114.238C629.99 114.238 646.31 117.438 661.03 123.838C675.75 129.918 688.39 138.558 698.95 149.758C709.51 160.958 717.67 174.238 723.43 189.598C729.19 204.958 732.07 221.758 732.07 239.998C732.07 264.318 727.11 286.078 717.19 305.278C707.27 324.158 693.19 339.198 674.95 350.398C657.03 361.278 636.07 366.718 612.07 366.718ZM612.07 324.958C627.43 324.958 640.55 321.118 651.43 313.438C662.31 305.758 670.63 295.518 676.39 282.718C682.47 269.918 685.51 255.678 685.51 239.998C685.51 224.318 682.47 210.238 676.39 197.758C670.63 184.958 662.15 174.878 650.95 167.518C640.07 159.838 627.11 155.998 612.07 155.998C597.03 155.998 583.91 159.838 572.71 167.518C561.83 174.878 553.35 184.958 547.27 197.758C541.51 210.238 538.63 224.478 538.63 240.478C538.63 256.158 541.51 270.398 547.27 283.198C553.35 295.678 561.83 305.758 572.71 313.438C583.91 321.118 597.03 324.958 612.07 324.958Z" fill="#0088FF"/>
<path d="M120 359.999V121.439H166.08C166.08 126.239 166.08 130.719 166.08 134.879C166.08 139.039 166.08 143.199 166.08 147.359C166.08 151.519 165.92 156.159 165.6 161.279L168.48 161.759C176.48 147.039 186.4 135.679 198.24 127.679C210.08 119.679 224 115.679 240 115.679C256.96 115.679 271.2 119.839 282.72 128.159C294.56 136.159 302.88 147.359 307.68 161.759H311.04C319.04 146.719 329.44 135.359 342.24 127.679C355.04 119.679 369.44 115.679 385.44 115.679C404.96 115.679 420.64 119.839 432.48 128.159C444.64 136.479 453.44 147.999 458.88 162.719C464.32 177.439 467.04 194.079 467.04 212.639V359.999H420.48V220.799C420.48 201.919 416.32 186.719 408 175.199C399.68 163.359 387.04 157.439 370.08 157.439C358.56 157.439 348.8 160.319 340.8 166.079C332.8 171.839 326.72 179.519 322.56 189.119C318.72 198.399 316.8 209.119 316.8 221.279V359.999H270.24V220.799C270.24 201.919 266.08 186.719 257.76 175.199C249.76 163.359 237.6 157.439 221.28 157.439C210.08 157.439 200.32 160.479 192 166.559C184 172.319 177.76 179.999 173.28 189.599C169.12 199.199 167.04 209.919 167.04 221.759V359.999H120Z" fill="#0088FF"/>
</svg>
